<svg width="150" height="150" viewBox="0 0 150 150" fill="none" xmlns="http://www.w3.org/2000/svg" style="width: 335px; height: 335px;"><style>
     .drone5-right {animation:drone5-spin 300ms linear infinite reverse; transform-origin:113.06px 62.62px;}
     .drone5-left {animation:drone5-spin 300ms 100ms linear infinite reverse; transform-origin:37.06px 62.69px;}
     .drone5 {animation:drone5-fly 4.5s infinite}
     @keyframes drone5-spin {
         100%{transform:rotateY(360deg);}
     }
     @keyframes drone5-fly {
         0%{transform: translate3d(0, -10px, 0);}
         50%{transform: translate3d(0, 10px, 0);}
         100%{transform: translate3d(0, -10px, 0);}
     }
     @media (prefers-reduced-motion: reduce) {
         .drone5-right, .drone5-left, .drone5 {
             animation: none;
         }
     }
    </style><g class="drone5" style="animation-duration: 4.5s;"><path class="fillCls2" d="M100.152 74.4594L76.7815 73.1875V73.0922L75.8276 73.124L75.0009 73.0922V73.1875L47.4016 74.4594L45.3984 80.6915L62.2505 90.2304H75.0009H81.074H85.3347L102.155 80.6915L100.152 74.4594Z" fill="#0E5740" stroke-width="2px"></path><path class="fillCls1" d="M118.529 66.7966H31.4707V76.1447H43.7441C49.9127 76.1447 55.8586 78.593 60.0557 83.1081C62.0589 85.2703 63.6487 87.8458 64.6662 90.7393H75H85.3338C86.3513 87.8458 87.9411 85.2703 89.9443 83.1081C94.1414 78.593 100.087 76.1447 106.256 76.1447H118.529V66.7966V66.7966Z" fill="#21B787" stroke-width="2px"></path><path class="fillCls6" d="M31.9043 66.4611C31.9043 65.9088 32.352 65.4611 32.9043 65.4611H41.0947C41.647 65.4611 42.0947 65.9088 42.0947 66.4611V69.77H31.9043V66.4611Z" fill="#0A2A3C" stroke-width="2px"></path><path class="fillCls6" d="M40.6917 65.7155C41.423 65.7155 42.0271 66.3197 42.0271 67.051V69.5311H32.1066V67.051C32.1066 66.3197 32.7108 65.7155 33.4421 65.7155H40.6917ZM40.6917 65.0796H33.4421C32.361 65.0796 31.4707 65.9699 31.4707 67.051V70.167H42.6631V67.051C42.6631 65.9699 41.7727 65.0796 40.6917 65.0796Z" fill="#0A2A3C" stroke-width="2px"></path><path class="fillCls6" d="M107.898 66.4611C107.898 65.9088 108.346 65.4611 108.898 65.4611H117.089C117.641 65.4611 118.089 65.9088 118.089 66.4611V69.77H107.898V66.4611Z" fill="#0A2A3C" stroke-width="2px"></path><path class="fillCls6" d="M116.559 65.7155C117.29 65.7155 117.894 66.3197 117.894 67.051V69.5311H107.974V67.051C107.974 66.3197 108.578 65.7155 109.309 65.7155H116.559ZM116.559 65.0796H109.309C108.228 65.0796 107.338 65.9699 107.338 67.051V70.167H118.53V67.051C118.53 65.9699 117.64 65.0796 116.559 65.0796Z" fill="#0A2A3C" stroke-width="2px"></path><path class="fillCls6" d="M75.0005 72.4246C78.4981 72.4246 81.328 75.2544 81.328 78.752C81.328 82.2497 78.4981 85.0795 75.0005 85.0795C71.5029 85.0795 68.673 82.2497 68.673 78.752C68.673 75.2862 71.5029 72.4246 75.0005 72.4246ZM75.0005 71.7886C71.1532 71.7886 68.0371 74.9047 68.0371 78.752C68.0371 82.5994 71.1532 85.7155 75.0005 85.7155C78.8479 85.7155 81.964 82.5994 81.964 78.752C81.964 74.9047 78.8479 71.7886 75.0005 71.7886Z" fill="#0A2A3C" stroke-width="2px"></path><path class="fillCls5" d="M75 84.1256C77.9502 84.1256 80.3418 81.7339 80.3418 78.7837C80.3418 75.8336 77.9502 73.442 75 73.442C72.0498 73.442 69.6582 75.8336 69.6582 78.7837C69.6582 81.7339 72.0498 84.1256 75 84.1256Z" fill="#9FDBEE" stroke-width="2px"></path><path class="fillCls4" d="M75.001 80.6597C76.0371 80.6597 76.877 79.8198 76.877 78.7838C76.877 77.7477 76.0371 76.9078 75.001 76.9078C73.9649 76.9078 73.125 77.7477 73.125 78.7838C73.125 79.8198 73.9649 80.6597 75.001 80.6597Z" fill="#FFE0E0" stroke-width="2px"></path><path class="fillCls6" d="M75.001 77.5437C75.6687 77.5437 76.2411 78.0842 76.2411 78.7838C76.2411 79.4833 75.7005 80.0238 75.001 80.0238C74.3333 80.0238 73.7609 79.4833 73.7609 78.7838C73.7609 78.0842 74.3333 77.5437 75.001 77.5437ZM75.001 76.9078C73.9517 76.9078 73.125 77.7345 73.125 78.7838C73.125 79.833 73.9517 80.6597 75.001 80.6597C76.0503 80.6597 76.877 79.833 76.877 78.7838C76.877 77.7345 76.0503 76.9078 75.001 76.9078Z" fill="#0A2A3C" stroke-width="2px"></path><path class="fillCls3" d="M76.4048 78.7761C76.8746 78.7121 77.2035 78.2793 77.1395 77.8096C77.0754 77.3398 76.6426 77.0109 76.1729 77.0749C75.7031 77.139 75.3742 77.5718 75.4382 78.0415C75.5023 78.5113 75.935 78.8402 76.4048 78.7761Z" fill="#FFFFFF" stroke-width="2px"></path><g class="drone5-left"><path class="fillCls7" d="M37.0671 60.628L2.59979 59.7377V60.628C2.4726 60.628 2.47261 60.787 2.568 60.8187L29.9129 65.7472C30.1355 65.779 30.3898 65.7472 30.6124 65.62L37.0671 62.0906V60.628Z" fill="#36C2DB" stroke-width="2px"></path><path class="fillCls7" d="M37.067 60.628L71.5343 59.9285L71.5025 60.628C71.6297 60.628 71.6296 60.787 71.5343 60.8188L44.1893 65.7473C43.9668 65.7791 43.7124 65.7473 43.4898 65.6201L37.0352 62.0907V60.628H37.067Z" fill="#36C2DB" stroke-width="2px"></path><path class="fillCls6" d="M30.1039 64.539C30.0721 64.539 30.0085 64.539 29.9767 64.539L5.08008 60.0557H36.7493V61.0414L30.4854 64.4754C30.3582 64.5072 30.2311 64.539 30.1039 64.539Z" fill="#0A2A3C" stroke-width="2px"></path><path class="fillCls6" d="M36.4312 60.3736V60.8505L30.3262 64.1892C30.2626 64.221 30.1991 64.2528 30.1355 64.2528C30.1037 64.2528 30.0719 64.2528 30.0719 64.2528L8.67289 60.4054H36.4312V60.3736ZM37.0671 59.7377H2.59979C2.4726 59.7377 2.47261 59.8967 2.568 59.9285L29.9129 64.8569C29.9765 64.8569 30.0401 64.8887 30.1037 64.8887C30.2945 64.8887 30.4534 64.8569 30.6124 64.7615L37.0671 61.2321V59.7377V59.7377Z" fill="#0A2A3C" stroke-width="2px"></path><path class="fillCls6" d="M43.9984 64.539C43.8712 64.539 43.744 64.5072 43.6486 64.4436L37.3848 61.0096V60.0557H69.054L44.1574 64.539C44.0938 64.539 44.062 64.539 43.9984 64.539Z" fill="#0A2A3C" stroke-width="2px"></path><path class="fillCls6" d="M65.4943 60.3736L44.0954 64.221C44.0636 64.221 44.0317 64.221 44.0317 64.221C43.9681 64.221 43.9046 64.1892 43.841 64.1574L37.7361 60.8187V60.3736H65.4943ZM71.5356 59.7377H37.0684V61.2321L43.523 64.7615C43.682 64.8569 43.841 64.8887 44.0317 64.8887C44.0953 64.8887 44.159 64.8887 44.2226 64.8569L71.5675 59.9285C71.6629 59.8967 71.631 59.7377 71.5356 59.7377Z" fill="#0A2A3C" stroke-width="2px"></path><path class="fillCls6" d="M37.0683 59.2607C36.6232 59.2607 36.2734 59.6105 36.2734 60.0557V65.461L37.8633 66.1113V60.0557C37.8633 59.6105 37.5135 59.2607 37.0683 59.2607Z" fill="#0A2A3C" stroke-width="2px"></path></g><g class="drone5-right"><path class="fillCls7" d="M112.932 60.628L78.465 59.7377V60.628C78.3378 60.628 78.3378 60.787 78.4332 60.8187L105.778 65.7472C106.001 65.779 106.255 65.7472 106.478 65.62L112.932 62.0906V60.628Z" fill="#36C2DB" stroke-width="2px"></path><path class="fillCls7" d="M112.932 60.628L147.399 59.9285L147.368 60.628C147.495 60.628 147.495 60.787 147.399 60.8188L120.055 65.7473C119.832 65.7791 119.578 65.7473 119.355 65.6201L112.9 62.0907V60.628H112.932Z" fill="#36C2DB" stroke-width="2px"></path><path class="fillCls6" d="M106 64.539C105.969 64.539 105.905 64.539 105.873 64.539L80.9766 60.0557H112.646V61.0414L106.382 64.4754C106.223 64.5072 106.096 64.539 106 64.539Z" fill="#0A2A3C" stroke-width="2px"></path><path class="fillCls6" d="M112.296 60.3736V60.8505L106.191 64.1892C106.128 64.221 106.064 64.2528 106.001 64.2528C105.969 64.2528 105.937 64.2528 105.937 64.2528L84.5381 60.4054H112.296V60.3736ZM112.932 59.7377H78.465C78.3378 59.7377 78.3378 59.8967 78.4332 59.9285L105.778 64.8569C105.842 64.8569 105.905 64.8887 105.969 64.8887C106.16 64.8887 106.319 64.8569 106.478 64.7615L112.932 61.2321V59.7377V59.7377Z" fill="#0A2A3C" stroke-width="2px"></path><path class="fillCls6" d="M119.897 64.539C119.77 64.539 119.642 64.5072 119.547 64.4436L113.283 61.0096V60.0557H144.952L120.056 64.539C119.992 64.539 119.929 64.539 119.897 64.539Z" fill="#0A2A3C" stroke-width="2px"></path><path class="fillCls6" d="M141.36 60.3736L119.961 64.221C119.929 64.221 119.897 64.221 119.897 64.221C119.833 64.221 119.77 64.1892 119.706 64.1574L113.601 60.8187V60.3736H141.36ZM147.401 59.7377H112.934V61.2321L119.388 64.7615C119.547 64.8569 119.706 64.8887 119.897 64.8887C119.961 64.8887 120.024 64.8887 120.088 64.8569L147.433 59.9285C147.528 59.8967 147.528 59.7377 147.401 59.7377Z" fill="#0A2A3C" stroke-width="2px"></path><path class="fillCls6" d="M112.934 59.2607C112.488 59.2607 112.139 59.6105 112.139 60.0557V65.461L113.728 66.1113V60.0557C113.728 59.6105 113.379 59.2607 112.934 59.2607Z" fill="#0A2A3C" stroke-width="2px"></path></g></g></svg>